#!OML:ASF H:\Terrain\Patient Classification 1\Animal1\Tuesday\Animal1.ASF
:FULLY-SPECIFIED
:DEGREES
1300
root 17.7239 16.5065 -1.97296 -173.87 54.0179 -180.811
lowerback 3.98851 -2.49468 1.05342
upperback 5.78189 -3.09985 2.52
thorax 3.81626 -1.44623 2.03702
lowerneck -6.01655 5.06754 0.647699
upperneck 0.344183 6.7337 3.35621
head 1.01081 3.4583 1.10544
rclavicle -8.34896e-015 1.19271e-014
rhumerus -6.31125 16.3746 -86.8896
rradius 21.3877
rwrist -38.7845
rhand -27.0717 33.3788
rfingers 7.12502
rthumb -0.489346 3.39957
lclavicle -8.34896e-015 1.19271e-014
lhumerus -5.60207 -4.5443 85.4626
lradius 18.4623
lwrist -23.0129
lhand 2.01938 41.0957
lfingers 7.12502
lthumb 27.5231 69.1039
rfemur -33.1547 27.0215 4.52245
rtibia 23.7038
rfoot -26.3282 -35.3854
rtoes 31.5453
lfemur -12.0175 -6.94163 -31.6425
ltibia 21.9746
lfoot -13.7318 16.3098
ltoes 11.0107
1301
root 17.8214 16.4932 -2.01692 -174.134 53.0639 -181.052
lowerback 3.9874 -2.63702 0.709236
upperback 5.69329 -3.29613 2.87013
thorax 3.77348 -1.56419 2.59383
lowerneck -5.87552 5.03113 -0.148671
upperneck 0.249897 6.74116 4.12293
head 0.907577 3.4726 1.46939
rclavicle 6.67916e-014 -3.97569e-015
rhumerus -6.38759 17.0405 -86.6648
rradius 21.3151
rwrist -38.7608
rhand -27.897 33.206
rfingers 7.12502
rthumb -1.28641 3.23018
lclavicle 6.67916e-014 -3.97569e-015
lhumerus -5.69314 -5.42689 85.5909
lradius 18.5638
lwrist -21.5212
lhand 2.21433 41.1047
lfingers 7.12502
lthumb 27.7095 69.0831
rfemur -32.8513 26.6129 4.56352
rtibia 23.8754
rfoot -26.0938 -33.8305
rtoes 31
lfemur -11.7237 -7.20964 -31.7369
ltibia 22.4839
lfoot -13.5099 16.306
ltoes 6.8305
1302
root 17.9149 16.4709 -2.05288 -174.244 52.3782 -181.253
lowerback 3.94503 -2.36807 0.6194
upperback 5.61152 -2.94203 2.91987
thorax 3.70402 -1.39278 2.6936
lowerneck -5.86697 4.62557 -0.0168356
upperneck 0.121736 6.20243 4.60694
head 0.868846 3.21548 1.58526
rclavicle 5.40694e-014 -4.21423e-014
rhumerus -6.46832 16.108 -86.5819
rradius 21.1134
rwrist -38.441
rhand -28.1652 33.1939
rfingers 7.12502
rthumb -1.54545 3.21978
lclavicle 5.40694e-014 -4.21423e-014
lhumerus -5.62252 -6.77035 85.6297
lradius 18.6993
lwrist -20.7513
lhand 2.42051 41.2861
lfingers 7.12502
lthumb 27.9067 69.2326
rfemur -32.869 26.0102 4.695
rtibia 24.2409
rfoot -22.8761 -33.0187
rtoes 26.3
lfemur -11.7323 -6.71951 -31.7611
ltibia 23.1714
lfoot -13.5689 15.7572
ltoes 1.72349
1303
root 18.0083 16.4463 -2.0865 -173.843 51.739 -180.864
lowerback 3.83594 -2.12193 0.973274
upperback 5.55373 -2.61059 3.03243
thorax 3.67883 -1.21425 2.60777
lowerneck -5.85942 4.15291 -0.039531
upperneck -0.0778233 5.5893 5.14513
head 0.806771 2.92067 1.74287
rclavicle -9.85972e-014 5.88403e-014
rhumerus -6.40419 14.9574 -86.4679
rradius 20.7804
rwrist -38.0162
rhand -27.5897 33.0219
rfingers 7.12502
rthumb -0.989662 3.04444
lclavicle -9.85972e-014 5.88403e-014
lhumerus -5.52215 -7.19875 85.7098
lradius 18.8332
lwrist -20.8078
lhand 2.32073 41.6299
lfingers 7.12502
lthumb 27.8113 69.5919
rfemur -32.8498 24.8278 5.56626
rtibia 24.9122
rfoot -18.5346 -31.5445
rtoes 22.3594
lfemur -11.8364 -5.75602 -31.3513
ltibia 23.8095
lfoot -14.1281 14.6416
ltoes -1.08296
1304
root 18.1064 16.425 -2.12324 -173.746 50.9479 -180.659
lowerback 3.83052 -2.25913 1.00026
upperback 5.40015 -2.79197 3.39601
thorax 3.54801 -1.30907 2.97257
lowerneck -5.17992 4.10253 -0.951527
upperneck -0.424251 5.59988 5.79568
head 0.541695 2.91951 2.08113
rclavicle 6.91771e-014 -5.64548e-014
rhumerus -6.82067 16.1055 -86.2694
rradius 21.0158
rwrist -38.6267
rhand -27.5693 32.1508
rfingers 7.12502
rthumb -0.96994 2.1733
lclavicle 6.91771e-014 -5.64548e-014
lhumerus -5.8907 -5.85069 85.9988
lradius 18.8877
lwrist -21.5122
lhand 2.36203 41.4998
lfingers 7.12502
lthumb 27.8508 69.4554
rfemur -32.5373 23.5539 6.45668
rtibia 25.793
rfoot -14.7069 -29.7655
rtoes 20.5147
lfemur -11.744 -5.20301 -31.0593
ltibia 24.4619
lfoot -14.5496 13.8632
ltoes -3.24714
1305
root 18.2006 16.4092 -2.16784 -174.538 50.1728 -181.183
lowerback 4.05748 -2.37414 0.672176
upperback 5.336 -2.93894 3.57694
thorax 3.38909 -1.39573 3.35502
lowerneck -4.66592 4.11044 -1.68759
upperneck -0.509205 5.65285 6.28522
head 0.392728 2.94103 2.35342
rclavicle -9.22361e-014 1.98785e-014
rhumerus -7.25921 16.8344 -86.1333
rradius 21.1671
rwrist -38.8614
rhand -27.7146 31.5247
rfingers 7.12502
rthumb -1.1103 1.54784
lclavicle -9.22361e-014 1.98785e-014
lhumerus -6.31898 -5.74499 86.1553
lradius 19.0882
lwrist -21.1214
lhand 2.34203 41.2429
lfingers 7.12502
lthumb 27.8316 69.2016
rfemur -31.9705 22.3452 6.87946
rtibia 26.8008
rfoot -10.3478 -28.4605
rtoes 12.8537
lfemur -11.267 -4.92046 -31.3113
ltibia 25.1383
lfoot -15.2142 13.3161
ltoes -3.45952
1306
root 18.2899 16.4023 -2.21224 -175.113 49.3717 -181.445
lowerback 4.30975 -2.13581 0.857617
upperback 5.53746 -2.59508 3.49633
thorax 3.4256 -1.20792 3.1714
lowerneck -5.45779 3.69032 -1.58481
upperneck -0.23107 5.08112 6.62309
head 0.636581 2.68252 2.46881
rclavicle -7.95139e-016 3.89618e-014
rhumerus -6.8564 14.997 -85.9769
rradius 20.6307
rwrist -37.9496
rhand -27.7609 31.6438
rfingers 7.12502
rthumb -1.155 1.66716
lclavicle -7.95139e-016 3.89618e-014
lhumerus -6.03841 -7.5773 86.124
lradius 19.4476
lwrist -19.9807
lhand 2.50307 41.2358
lfingers 7.12502
lthumb 27.9856 69.1695
rfemur -31.4662 21.2765 7.31357
rtibia 27.7995
rfoot -7.81226 -27.1197
rtoes 5.6819
lfemur -10.8664 -4.64743 -31.3978
ltibia 25.8864
lfoot -15.8397 12.7163
ltoes -3.68139
1307
root 18.382 16.3977 -2.25153 -175.235 48.4676 -181.541
lowerback 4.35332 -1.81013 1.03898
upperback 5.5989 -2.14867 3.45996
thorax 3.43345 -0.973577 3.02788
lowerneck -6.32503 3.1939 -1.22157
upperneck 0.147278 4.37888 6.8753
head 0.941971 2.36402 2.50762
rclavicle 8.26944e-014 -2.94201e-014
rhumerus -6.5343 12.7008 -85.8299
rradius 19.9928
rwrist -36.7051
rhand -28.0428 31.6818
rfingers 7.12502
rthumb -1.42724 1.70679
lclavicle 8.26944e-014 -2.94201e-014
lhumerus -5.78696 -8.77696 86.2855
lradius 19.7571
lwrist -19.7346
lhand 2.53683 41.3954
lfingers 7.12502
lthumb 28.0179 69.3238
rfemur -31.2537 20.2673 7.59883
rtibia 28.5822
rfoot -7.17169 -25.9645
rtoes 5.07655
lfemur -10.9888 -4.31475 -31.3234
ltibia 26.9173
lfoot -15.9763 12.0236
ltoes -6.37923
1308
root 18.4729 16.3826 -2.29026 -175.053 47.6266 -181.3
lowerback 4.35897 -1.90586 1.09109
upperback 5.56755 -2.26552 3.80333
thorax 3.41737 -1.03081 3.35828
lowerneck -6.55019 3.10632 -1.75815
upperneck 0.328629 4.28368 7.11429
head 1.0303 2.32481 2.69268
rclavicle 4.77083e-015 3.65764e-014
rhumerus -6.50652 12.9434 -85.6123
rradius 19.7664
rwrist -36.3467
rhand -28.0223 31.7985
rfingers 7.12502
rthumb -1.40743 1.82342
lclavicle 4.77083e-015 3.65764e-014
lhumerus -5.90062 -8.39484 86.5876
lradius 19.9778
lwrist -19.4861
lhand 2.00688 41.8125
lfingers 7.12502
lthumb 27.5112 69.8226
rfemur -30.9955 19.2435 8.11599
rtibia 29.1272
rfoot -5.60072 -25.399
rtoes 3.37374
lfemur -11.4054 -3.84472 -31.0144
ltibia 28.4287
lfoot -16.2292 11.4967
ltoes -9.6463
